:SAMPLES-PER-SECOND 30
:FULLY-SPECIFIED
:DEGREES
38
root  22.46333295 37.59422302 -52.71399791 -3.814169884 -5.658360004 2.065560102
lowerback  5.834700108 0.05045219883 -0.4251939952
upperback  3.455670118 0.04311870039 0.2805840075
thorax  0.2822439969 0.01103650033 0.5240129828
lowerneck  -12.15209961 4.167339802 -0.7348150015
upperneck  -3.934779882 5.625090122 -3.058419943
head  0.8599029779 2.75605011 -0.5863749981
lclavicle  0 -1.620099928e-014 -1.431250036e-014
lhumerus  -28.60880089 11.33749962 86.53410339
lradius  -2.960392806e-031 -1.924816477e-031 33.03150177
lwrist  -2.824900031e-030 -3.178012535e-030 22.40369987
lhand  -1.522208093e-030 -21.89089966 22.84740067
lfingers  90 7.125020027 -90
lthumb  90.61603193 7.755020578 85.4441456
rclavicle  0 -1.620099928e-014 -1.431250036e-014
rhumerus  -24.41040039 1.919389963 -87.22779846
rradius  3.250241935e-031 1.38013456e-031 23.00729942
rwrist  2.824900031e-030 -1.412450015e-030 -6.111979961
rhand  1.570731925e-030 -25.9428997 18.57430077
rfingers  -90 -7.125020027 -90
rthumb  -89.60083768 -33.59330664 -89.2785978
rfemur  -15.59090042 4.207330227 19.90069962
rtibia  -0 0 72.87640381
rfoot  -0 -1.358989954 -17.8173008
rtoes  -1.575397198 19.94038992 -85.38945295
lfemur  -9.981610298 -2.325370073 -30.28580093
ltibia  -0 0 30.48920059
lfoot  -0 -16.47909927 10.53479958
ltoes  -3.695914299 -19.66929668 -100.8636129
39
root  22.44533329 37.66444349 -52.37822045 -3.769000053 -5.087140083 1.926720023
lowerback  5.879670143 -0.02200349979 -0.2794179916
upperback  3.438879967 -0.04605489969 0.2433149964
thorax  0.240880996 -0.0308641009 0.4089210033
lowerneck  -12.31690025 4.072430134 -0.3853290081
upperneck  -3.721290112 5.463659763 -3.179490089
head  0.9707819819 2.664930105 -0.6832699776
lclavicle  0 -1.620099928e-014 -1.431250036e-014
lhumerus  -28.04800034 9.640069962 87.00920105
lradius  -2.91603151e-031 -1.991382501e-031 34.32949829
lwrist  -2.824900031e-030 1.059337512e-030 23.14599991
lhand  -1.522208093e-030 -21.89089966 22.84740067
lfingers  90 7.125020027 -90
lthumb  90.61603193 7.755020578 85.4441456
rclavicle  0 -1.620099928e-014 -1.431250036e-014
rhumerus  -25.27869987 0.7238810062 -87.02010345
rradius  3.255941994e-031 1.366633005e-031 22.76950073
rwrist  2.824900031e-030 -4.237350046e-030 -6.337470055
rhand  1.570731925e-030 -25.9428997 18.57430077
rfingers  -90 -7.125020027 -90
rthumb  -89.60083768 -33.59330664 -89.2785978
rfemur  -16.80859947 4.35999012 19.9958992
rtibia  -0 0 72.76280212
rfoot  -0 -2.951989889 -18.55249977
rtoes  -1.575397198 19.94038992 -85.38945295
lfemur  -9.334719658 -2.830739975 -30.21559906
ltibia  -0 0 30.25359917
lfoot  -0 -17.01729965 10.41689968
ltoes  -3.695914299 -19.66929668 -100.8636129
40
root  22.42777817 37.70533284 -52.02444482 -3.797250032 -4.577119827 1.822170019
lowerback  5.95773983 -0.138706997 -0.2648279965
upperback  3.336090088 -0.1997089982 0.3431409895
thorax  0.09356109798 -0.1077290028 0.512130022
lowerneck  -12.31369972 3.979520082 -0.4195060134
upperneck  -3.329349995 5.357269764 -3.197319984
head  1.09600997 2.606460094 -0.6837530136
lclavicle  0 -1.620099928e-014 -1.431250036e-014
lhumerus  -27.77549934 8.337309837 87.56819916
lradius  -2.865088451e-031 -2.064003925e-031 35.76890182
lwrist  -5.649800062e-030 -2.471787527e-030 23.73539925
lhand  -1.522208093e-030 -21.89089966 22.84740067
lfingers  90 7.125020027 -90
lthumb  90.61603193 7.755020578 85.4441456
rclavicle  0 -1.620099928e-014 -1.431250036e-014
rhumerus  -26.42300034 0.2322950065 -86.73429871
rradius  3.25553399e-031 1.367604649e-031 22.78660011
rwrist  0 -2.824900031e-030 -7.451749802
rhand  1.570731925e-030 -25.9428997 18.57430077
rfingers  -90 -7.125020027 -90
rthumb  -89.60083768 -33.59330664 -89.2785978
rfemur  -17.78070068 4.689819813 20.00930023
rtibia  -0 0 72.44789886
rfoot  -0 -4.211030006 -18.64109993
rtoes  -1.575397198 19.94038992 -85.38945295
lfemur  -8.596879959 -3.067800045 -30.1970005
ltibia  -0 0 29.99650002
lfoot  -0 -17.16329956 10.31849957
ltoes  -3.695914299 -19.66929668 -100.8636129
41
root  22.4031118 37.68155556 -51.69778058 -3.909310102 -4.065010071 2.174119949
lowerback  6.125959873 -0.2565079927 -0.8580309749
upperback  3.308510065 -0.3865779936 0.4468280077
thorax  -0.02091130055 -0.2088830024 0.9632639885
lowerneck  -12.37370014 3.892100096 -0.8264290094
upperneck  -3.041389942 5.302859783 -3.025520086
head  1.181130052 2.581939936 -0.5603880286
lclavicle  0 -1.620099928e-014 -1.431250036e-014
lhumerus  -27.34490013 7.506939888 88.1733017
lradius  -2.818909347e-031 -2.126639163e-031 37.03160095
lwrist  0 -3.178012535e-030 23.99060059
lhand  -1.522208093e-030 -21.89089966 22.84740067
lfingers  90 7.125020027 -90
lthumb  90.61603193 7.755020578 85.4441456
rclavicle  0 -1.620099928e-014 -1.431250036e-014
rhumerus  -27.41110039 0.3977360129 -86.41840363
rradius  3.253475186e-031 1.372495265e-031 22.87269974
rwrist  0 1.412450015e-030 -8.679089546
rhand  1.570731925e-030 -25.9428997 18.57430077
rfingers  -90 -7.125020027 -90
rthumb  -89.60083768 -33.59330664 -89.2785978
rfemur  -18.70529938 4.9489398 19.50919914
rtibia  -0 0 72.02100372
rfoot  -0 -5.046420097 -18.59429932
rtoes  -1.575397198 19.94038992 -85.38945295
lfemur  -7.85172987 -3.152460098 -30.65640068
ltibia  -0 0 29.7779007
lfoot  -0 -17.07439995 10.04699993
ltoes  -3.695914299 -19.66929668 -100.8636129
